<svg xmlns="http://www.w3.org/2000/svg" width="16" height="30" viewBox="0 0 16 30">
  <g id="Security12" transform="translate(-8 -1)">
    <g id="그룹_113" data-name="그룹 113">
      <path id="패스_50" data-name="패스 50" d="M19,16.42V24h1a1,1,0,0,1,1,1v3a.977.977,0,0,1-.55.89l-4,2A.934.934,0,0,1,16,31a1.024,1.024,0,0,1-.71-.29l-2-2A1.033,1.033,0,0,1,13,28V16.42a8,8,0,1,1,6,0Z" fill="#2197f3"/>
    </g>
    <g id="그룹_114" data-name="그룹 114">
      <path id="패스_51" data-name="패스 51" d="M19,9a3,3,0,1,1-3-3A3.009,3.009,0,0,1,19,9Z" fill="#ffc10a"/>
    </g>
  </g>
</svg>
