<svg xmlns="http://www.w3.org/2000/svg" xmlns:xlink="http://www.w3.org/1999/xlink" width="56.8" height="56.749" viewBox="0 0 56.8 56.749">
  <defs>
    <clipPath id="clip-path">
      <rect id="사각형_77" data-name="사각형 77" width="56.8" height="56.749" fill="none"/>
    </clipPath>
  </defs>
  <g id="그룹_119" data-name="그룹 119" transform="translate(0 0)">
    <g id="그룹_118" data-name="그룹 118" transform="translate(0 0)" clip-path="url(#clip-path)">
      <path id="패스_52" data-name="패스 52" d="M46.131,20.115h-.015c.466-.791.691-1.677,1.242-2.088-.326-.262-.07-.475.021-.709.91-.691,1.178-1.677,1.851-2.484-.14-.539-.664-.956-.889-1.467.244-.079.5-.155.755-.231.3.079.612.3.919.061.216-.9,1.193-1.5,1.479-2.371-.17-.292-.353-.591-.533-.883.411-.49.225-1.248,1.068-1.553.4.079.767.4,1.218.152.125-.271.262-.548.39-.822a2.281,2.281,0,0,1-.907-.764c.536-.033.779-.417,1.23-.554A38.03,38.03,0,0,0,56.8,1.866c-.5-.073-.393-.466-.636-.679.174-.335.341-.679.508-1.02-.307-.082-.615-.3-.932-.058-.167.338-.329.679-.5,1.023-.654.186-1.44-.033-2.055.289-.341.268.055.624-.122.91.186.058.368.113.551.174.149.164.25.32.076.5a.614.614,0,0,1-.645.03c-.064-.1-.119-.2-.183-.3-.247.079-.5.155-.752.228-.17.183-.067.341.079.5.311.082.612.292.932.064l.35.584c-.381.423-.174,1.105-.971,1.346.061.1.116.192.174.289-.125.04-.247.082-.371.119.362.35-.043.609-.122.907-.813.143-1.358.715-2.256.7-.043-.344-.444-.356-.737-.466-.326-.259-.067-.475.027-.706-.033-.35-.441-.356-.728-.469-.39-.444.14-.74.21-1.114.518-.341,1.072.377,1.589.033.393.219-.146.572.256.791-.107.2-.2.4-.3.612a.493.493,0,0,0,.46.387c.5-.277.524-.858,1.148-1.056-.143-.158-.247-.323-.082-.5-.4-.079-.758-.4-1.2-.149-.39-.213.14-.569-.256-.788a.63.63,0,0,1-.651.027c-.128.216-.116.518-.578.527-.286-.49-1.038-.5-1.324-.983.064-.143.128-.274.189-.411-.116-.195-.231-.39-.347-.588-.25.082-.505.155-.758.231-.164.347-.329.685-.5,1.032.216.347,1.181.073,1.257.481-.021.225-.231.289-.469.323-.28-.088-1.163.487-1.443.4-.384,1.068-.855,1.221-1.163,2.323a3.735,3.735,0,0,0,1.492.234c.061-.374.578-.268.846-.438a3.706,3.706,0,0,1,1.479.24c.253-.082.508-.158.755-.237.368.53-.228.88-.32,1.321-.651.113-.518.624-.773.935.14.164.247.323.079.5-.478-.052-.381.5-.858.444-.362.746-.721,1.5-1.09,2.253-.472-.061-.381.493-.855.438-.521-.764.874-1.257.341-2.018.457-.012.451-.311.581-.533.04-.359-.679-.317-.636-.673.326-.332.164-.74.222-1.111-.311-.082-.615-.3-.932-.061-.119-.195-.234-.393-.353-.584-.3-.088-.612-.3-.925-.061-1.236,1.495-2.1,3.154-3.5,4.566.338.475-.116.8-.274,1.193a.9.9,0,0,1-.344-.314c.067-.143.131-.277.195-.411-.119-.195-.237-.393-.353-.588-.24.076-.5.155-.755.228-.161.347-.326.688-.49,1.032.207.347,1.172.076,1.251.481,0,.015-.012.021-.015.033-.152.11-.274.2-.377.274a.8.8,0,0,1-.082.018c-.274-.088-1.157.481-1.437.4a6.836,6.836,0,0,1-.819,1.47c-.651.289-1.516.682-1.677.734-.3-.033-.231-.207-.292-.39.651-.892.7.125,1.817-.594-.39-.213.14-.566-.25-.788a28.311,28.311,0,0,1,3.294-4.155c.131-.667.974-1.163.621-1.93-.307-.082-.615-.3-.931-.061-.393-.222.137-.572-.256-.795-.289-.11-.691-.122-.728-.469-.31-.082-.612-.292-.928-.061-.14.277-.268.551-.4.819a.471.471,0,0,0,.454.381c.3.518.049,1.1.508,1.586-.021.225-.231.283-.472.323-.3-.113-.7-.125-.731-.469.335-.265-.064-.627.119-.907-.429-.219-1.1-.149-1.291-.651-.3-.079-.6-.289-.925-.058a3.517,3.517,0,0,0-.621,1.93c.451.3,1.032-.055,1.479.24.122.192.244.39.359.588-.131.216-.116.518-.572.524-.122-.195-.237-.39-.353-.588-.39-.155-.837.131-1.209-.146-.247.04-.451.1-.478.323.362.353-.043.612-.122.9q-.749.237-1.507.469c-.061.14-.131.274-.195.411.18.3.347.591.527.88-.332.484-1.09.414-1.6.667-.551.871-.469,1.479-1.108,2.32-.268.283-.676.3-.941.584.377.441-.9.268-.974.642a6.814,6.814,0,0,0-.88,1.412L17.994,35.7V19.969H0V56.751H17.994V42.432l8.676,14.32H44.691L33.644,40.109Z" transform="translate(0 -0.001)" fill="#e80001"/>
    </g>
  </g>
</svg>
